<svg width="102" height="32" xmlns="http://www.w3.org/2000/svg"><g fill="none" fill-rule="evenodd"><path d="M0 0h102v32H0z"/><path d="M5.1 15.5C3.2 14.8 2 14.3 2 12.7c0-1.5 1.3-2.6 2.7-2.6h.1c1 0 1.8.3 3.3 1.1l.6.3v-2h-.2l.1-.3c-1.1-.7-2.5-1-3.8-1-1.2 0-2.4.4-3.3 1.3-.9.8-1.5 2-1.5 3.3 0 2.9 2.2 3.8 4.1 4.5 1.7.7 3.2 1.2 3.2 3.1 0 .7-.3 1.4-.9 1.9-.4.5-1.1.7-1.8.7-1.1 0-2.1-.4-3.7-1.6L.2 21v2.4l.2.1c1.2.9 2.7 1.4 4.2 1.4h.2c2.5 0 4.6-2 4.7-4.5v-.1c0-3.2-2.4-4.1-4.4-4.8zM23.7 23c-3.4.2-6.3-2.5-6.5-5.9v-.5c-.1-3.4 2.6-6.3 6.1-6.5h.3c1.9 0 3.7.5 5.4 1.5l.6.3V9.5h-.4c-1.7-.8-3.6-1.3-5.5-1.3-2.2 0-4.4.8-6 2.4-1.6 1.6-2.5 3.6-2.6 5.9v.1c0 4.7 3.7 8.3 8.6 8.3 2 0 4-.5 5.7-1.5l.2-.1v-2.2l-.6.4c-1.6 1-3.4 1.5-5.3 1.5zM42.1 8.3l-7.5 16.4h2.1l2.5-5.4h7.1l2.5 5.4h2.1L43.2 8.3h-1.1zm3.3 9.3H40l2.7-5.9 2.7 5.9zM58 8.5h-2v16.2h9.6V23H58zM73 17.4h7v-1.7h-7v-5.5h7.2V8.5H71v16.2h9.4V23H73zM93.1 8.3H92l-7.5 16.4h2.1l2.5-5.4h7.1l2.4 5.4h2.1L93.3 8.6l-.2-.3zm2.2 9.3h-5.4l2.7-5.9 2.7 5.9zM100.4 8.3c0-.4-.2-.6-.6-.6h-.7v1.8h.3v-.7h.3l.5.8h.3l-.5-.8c.2 0 .4-.2.4-.5zm-1.1.2V8h.4c.2 0 .4 0 .4.3s-.2.3-.5.3h-.3v-.1z" fill="#4C575F" fill-rule="nonzero"/><path d="M99.7 7.1c-.9 0-1.6.7-1.6 1.6 0 .9.7 1.6 1.6 1.6.9 0 1.6-.7 1.6-1.6-.1-.9-.8-1.6-1.6-1.6zm0 2.9c-.7 0-1.3-.6-1.3-1.3v-.1c0-.7.6-1.3 1.4-1.3.7 0 1.3.6 1.3 1.4-.1.8-.7 1.3-1.4 1.3z" fill="#4C575F" fill-rule="nonzero"/></g></svg>