<?xml version="1.0" encoding="UTF-8"?>
<svg width="102px" height="32px" viewBox="0 0 102 32" version="1.1" xmlns="http://www.w3.org/2000/svg" xmlns:xlink="http://www.w3.org/1999/xlink">
    <title>EF960BC3-A84E-4FD7-BBAB-91C6EDE384B7</title>
    <g id="WORK-IN-PROCESS" stroke="none" stroke-width="1" fill="none" fill-rule="evenodd">
        <g id="01" transform="translate(-1059.000000, -5581.000000)">
            <g id="Nuestras-marcas" transform="translate(204.000000, 5263.000000)">
                <g id="logos_ajustados_SCALEA" transform="translate(855.000000, 318.000000)">
                    <rect id="Rectangle" x="0" y="0" width="102" height="32"></rect>
                    <path d="M5.1,15.5 C3.2,14.8 2,14.3 2,12.7 C2,11.2 3.3,10.1 4.7,10.1 L4.8,10.1 C5.8,10.1 6.6,10.4 8.1,11.2 L8.7,11.5 L8.7,9.5 L8.5,9.5 L8.6,9.2 C7.5,8.5 6.1,8.2 4.8,8.2 C3.6,8.2 2.4,8.6 1.5,9.5 C0.6,10.3 0,11.5 0,12.8 C0,15.7 2.2,16.6 4.1,17.3 C5.8,18 7.3,18.5 7.3,20.4 C7.3,21.1 7,21.8 6.4,22.3 C6,22.8 5.3,23 4.6,23 C3.5,23 2.5,22.6 0.9,21.4 L0.2,21 L0.2,23.4 L0.4,23.5 C1.6,24.4 3.1,24.9 4.6,24.9 C4.7,24.9 4.7,24.9 4.8,24.9 C7.3,24.9 9.4,22.9 9.5,20.4 L9.5,20.3 C9.5,17.1 7.1,16.2 5.1,15.5 Z" id="Path" fill="#4C575F" fill-rule="nonzero"></path>
                    <path d="M23.7,23 C20.3,23.2 17.4,20.5 17.2,17.1 C17.2,16.9 17.2,16.8 17.2,16.6 C17.1,13.2 19.8,10.3 23.3,10.1 C23.4,10.1 23.5,10.1 23.6,10.1 C25.5,10.1 27.3,10.6 29,11.6 L29.6,11.9 L29.6,9.5 L29.2,9.5 C27.5,8.7 25.6,8.2 23.7,8.2 C21.5,8.2 19.3,9 17.7,10.6 C16.1,12.2 15.2,14.2 15.1,16.5 L15.1,16.6 C15.1,21.3 18.8,24.9 23.7,24.9 C25.7,24.9 27.7,24.4 29.4,23.4 L29.6,23.3 L29.6,21.1 L29,21.5 C27.4,22.5 25.6,23 23.7,23 Z" id="Path" fill="#4C575F" fill-rule="nonzero"></path>
                    <path d="M42.1,8.3 L34.6,24.7 L36.7,24.7 L39.2,19.3 L46.3,19.3 L48.8,24.7 L50.9,24.7 L43.2,8.3 L42.1,8.3 Z M45.4,17.6 L40,17.6 L42.7,11.7 L45.4,17.6 Z" id="Shape" fill="#4C575F" fill-rule="nonzero"></path>
                    <polygon id="Path" fill="#4C575F" fill-rule="nonzero" points="58 8.5 56 8.5 56 24.7 65.6 24.7 65.6 23 58 23"></polygon>
                    <polygon id="Path" fill="#4C575F" fill-rule="nonzero" points="73 17.4 80 17.4 80 15.7 73 15.7 73 10.2 80.2 10.2 80.2 8.5 71 8.5 71 24.7 80.4 24.7 80.4 23 73 23"></polygon>
                    <path d="M93.1,8.3 L92,8.3 L84.5,24.7 L86.6,24.7 L89.1,19.3 L96.2,19.3 L98.6,24.7 L100.7,24.7 L93.3,8.6 L93.1,8.3 Z M95.3,17.6 L89.9,17.6 L92.6,11.7 L95.3,17.6 Z" id="Shape" fill="#4C575F" fill-rule="nonzero"></path>
                    <path d="M100.4,8.3 C100.4,8.3 100.4,8.3 100.4,8.3 C100.4,7.9 100.2,7.7 99.8,7.7 L99.1,7.7 L99.1,9.5 L99.4,9.5 L99.4,8.8 L99.7,8.8 L100.2,9.6 L100.5,9.6 L100,8.8 C100.2,8.8 100.4,8.6 100.4,8.3 Z M99.3,8.5 L99.3,8 L99.7,8 C99.9,8 100.1,8 100.1,8.3 C100.1,8.6 99.9,8.6 99.6,8.6 L99.3,8.6 L99.3,8.5 Z" id="Shape" fill="#4C575F" fill-rule="nonzero"></path>
                    <path d="M99.7,7.1 C98.8,7.1 98.1,7.8 98.1,8.7 C98.1,9.6 98.8,10.3 99.7,10.3 C100.6,10.3 101.3,9.6 101.3,8.7 C101.2,7.8 100.5,7.1 99.7,7.1 Z M99.7,10 C99,10 98.4,9.4 98.4,8.7 C98.4,8.7 98.4,8.7 98.4,8.6 C98.4,7.9 99,7.3 99.8,7.3 C100.5,7.3 101.1,7.9 101.1,8.7 C101,9.5 100.4,10 99.7,10 Z" id="Shape" fill="#4C575F" fill-rule="nonzero"></path>
                </g>
            </g>
        </g>
    </g>
</svg>