<svg width="149" height="32" xmlns="http://www.w3.org/2000/svg"><g fill="none" fill-rule="evenodd"><path d="M0 0h149v32H0z"/><path d="M14 7.7c0 1-.8 1.8-1.7 1.8H1.8C.8 9.4 0 8.6 0 7.7s.8-1.8 1.8-1.8h10.5c.9 0 1.7.8 1.7 1.8zm-1.8 16.9H1.8c-1 0-1.7.8-1.7 1.7 0 .9.8 1.7 1.7 1.7h10.5c1 0 1.7-.8 1.7-1.7 0-.9-.8-1.7-1.8-1.7zm5.9-14H1.8c-1 0-1.7.8-1.7 1.7 0 1 .8 1.7 1.7 1.7h16.3c1 0 1.7-.8 1.7-1.7 0-.9-.8-1.7-1.7-1.7zm0 9.3H1.8c-1 0-1.7.8-1.7 1.7 0 1 .8 1.7 1.7 1.7h16.3c1 0 1.7-.8 1.7-1.7 0-.9-.8-1.7-1.7-1.7zm2.4-4.6H1.8C.8 15.3 0 16 0 17s.8 1.7 1.7 1.7h18.6c1 0 1.7-.8 1.7-1.7.1-1-.6-1.7-1.5-1.7zM145.8 13.3c1.3 0 2.4-1.1 2.4-2.4 0-1.3-1.1-2.4-2.4-2.4-1.3 0-2.4 1.1-2.4 2.4 0 1.4 1.1 2.4 2.4 2.4zm0-.2c-1.2 0-2.1-.9-2.1-2.1 0-1.2.9-2.1 2.1-2.1 1.2 0 2.1.9 2.1 2.1 0 1.1-.9 2-2.1 2.1zm-1-1.2c0 .2.1.3.3.3.2 0 .3-.1.3-.3v-.5h.4l.6.7c.1.1.2.1.2.1.2 0 .3-.1.3-.3 0-.1 0-.2-.1-.2l-.4-.5c.3-.1.5-.4.5-.7 0-.5-.4-.8-1-.8h-.9c-.2 0-.3.1-.3.3l.1 1.9zm.6-1v-.7h.5c.3 0 .4.1.4.3 0 .2-.2.3-.4.3h-.5v.1zm-55.2 13c.1.8.8 1.4 1.6 1.3.7-.1 1.2-.6 1.3-1.3V11.5h4c.7-.1 1.3-.7 1.2-1.5-.1-.6-.6-1.1-1.2-1.2H86.3c-.7-.1-1.4.5-1.5 1.2-.1.7.5 1.4 1.2 1.5h4.3v12.4h-.1zm-60.8-.2c0 .8.6 1.4 1.4 1.4h4.6c5.1 0 8.7-3.6 8.7-8.2s-3.6-8.1-8.7-8.1h-4.6c-.8 0-1.4.6-1.5 1.4v13.5h.1zm2.9-1.1V11.5h3.2c2.9-.2 5.5 2.1 5.7 5v.5c.1 2.9-2.1 5.4-5.1 5.5H32.3v.1zM68 23.9c.1.8.8 1.4 1.6 1.3.7-.1 1.2-.6 1.3-1.3v-3.4l2.7-2.6 5.2 6.7c.3.4.7.7 1.2.7.8 0 1.4-.6 1.4-1.3v-.1c0-.4-.1-.7-.4-1L75.6 16l5.1-4.9c.3-.3.5-.7.5-1.1 0-.7-.6-1.3-1.3-1.3-.5 0-.9.2-1.2.5L71 17v-6.8c-.1-.8-.8-1.4-1.6-1.3-.7.1-1.2.6-1.3 1.3L68 23.9zm42.2 1.5c4.6.1 8.4-3.5 8.5-8.1V17c0-4.7-3.8-8.5-8.5-8.5s-8.5 3.8-8.5 8.5c-.1 4.6 3.6 8.4 8.2 8.4.1.1.2.1.3 0zm0-2.6c-3.1 0-5.6-2.5-5.5-5.6V17c-.1-3 2.2-5.6 5.3-5.7h.2c3.1 0 5.6 2.5 5.5 5.6v.2c.1 3-2.2 5.6-5.2 5.7h-.3zm14.2 1.1c.1.8.8 1.4 1.5 1.3.7-.1 1.2-.6 1.3-1.3V13.5l8.4 10.8c.3.5.9.9 1.5.9h.1c.8 0 1.4-.6 1.4-1.4V10.1c-.1-.8-.8-1.4-1.5-1.3-.7.1-1.2.6-1.3 1.3v10l-8.2-10.6c-.3-.5-.9-.8-1.5-.8h-.3c-.8 0-1.4.6-1.4 1.4v13.8zM60.2 17c0-.7-.6-1.3-1.3-1.3h-3.6c-.7 0-1.3.6-1.3 1.3 0 .7.6 1.3 1.3 1.3H59c.7 0 1.3-.6 1.2-1.3zm-7.3 5.6H61c.7 0 1.3.6 1.3 1.3 0 .7-.6 1.3-1.3 1.3h-9.6c-.8 0-1.4-.6-1.4-1.4V10.3c0-.8.6-1.4 1.4-1.4H61c.7 0 1.3.6 1.3 1.3 0 .7-.6 1.3-1.3 1.3h-8.1v11.1z" fill="#1D1D1B" fill-rule="nonzero"/></g></svg>