<svg width="93" height="32" xmlns="http://www.w3.org/2000/svg"><g fill="none" fill-rule="evenodd"><path d="M0 0h93v32H0z"/><path d="M7.9 8.3c1.1.4 1.6.3 1.6-.3h.4l.3 4.5h-.3c-.2-1.1-.6-2.1-1.3-2.9a3.4 3.4 0 00-3-1.3c-.8-.1-1.5.2-2.1.7-.3.3-.6.7-.7 1.1-.1.4-.1.9 0 1.4.1.4.3.8.6 1.1.8.6 1.8 1.1 2.8 1.4 1 .3 2 .8 2.9 1.3.7.4 1.3 1 1.8 1.6.4.8.6 1.7.5 2.5 0 1.4-.6 2.7-1.7 3.6-1.2 1-2.7 1.5-4.3 1.3-1.1-.1-2.1-.4-3.1-1-.3-.2-.6-.3-1-.5-.2-.1-.5 0-.7.2-.2.3-.4.6-.3 1H0v-4.8h.4c.2 1.2.8 2.3 1.6 3.1.9.9 2.1 1.4 3.4 1.4.9.1 1.9-.2 2.7-.7.4-.3.7-.7.9-1.2.2-.5.2-1 .2-1.5s-.2-.9-.5-1.3c-.4-.4-.8-.7-1.3-1-.6-.3-1.3-.7-2-.9-.7-.3-1.3-.5-1.7-.7C1.5 15.3.3 13.8.3 12.1c0-1.2.4-2.3 1.3-3.1C2.7 8.1 4 7.7 5.4 7.7c.9 0 1.7.2 2.5.6zM30.4 7.9l.2 3.8-.4.1c-.2-2.3-1.4-3.4-3.8-3.4h-4.1v6.7h2.1c1.2.1 2.2-.7 2.3-1.9v-.5h.4v5.4h-.4c0-1.6-.8-2.5-2.4-2.5h-2v5.3c0 1.8 1.2 2.7 3.6 2.7 3.4 0 5.2-1.4 5.3-4.2h.4l-.2 4.6h-14v-.4c1 .1 1.9-.6 2-1.6V10.4c.2-1-.5-1.9-1.5-2h-.6v-.5h13.1zM43.2 7.9c.1.4.3.8.6 1.1 1.5 2.2 3.9 5.6 7.4 10.1v-8.7c.1-1-.5-1.9-1.5-2h-.5v-.5h4.5v.5c-1-.1-1.9.5-2 1.5v14.2h-.9L40.1 9.7v11.9c-.2 1 .5 1.9 1.5 2.1h.5v.4h-4.5v-.4c1 .1 1.9-.6 2-1.6V10.4c.1-1-.5-1.9-1.5-2h-.5v-.5h5.6zM67.8 8.3c1 .5 1.5.4 1.6-.3h.4l.3 4.5h-.4c-.2-1.1-.6-2.1-1.3-2.9a3.4 3.4 0 00-3-1.3c-.8 0-1.5.2-2.1.7-.3.3-.6.7-.7 1.1-.1.4-.1.9 0 1.4.1.4.3.8.6 1.1.8.6 1.7 1.1 2.7 1.4 1 .3 2 .8 3 1.3.7.4 1.3 1 1.8 1.6.4.8.6 1.7.5 2.5 0 1.4-.6 2.7-1.6 3.6-1.2 1-2.7 1.5-4.3 1.3-1.1-.1-2.1-.4-3.1-1-.3-.2-.6-.3-1-.5-.2-.1-.5 0-.7.2-.2.3-.4.6-.3 1h-.4v-4.8h.4c.2 1.2.8 2.3 1.6 3.1.9.9 2.1 1.4 3.4 1.4.9.1 1.9-.2 2.7-.7.4-.3.7-.7.9-1.2.2-.5.2-1 .2-1.5s-.2-.9-.5-1.3c-.4-.4-.8-.7-1.3-1-.6-.3-1.3-.7-2-.9-.8-.3-1.4-.6-1.7-.7-2.2-1.1-3.4-2.6-3.4-4.3 0-1.2.4-2.3 1.3-3.1 1.1-.9 2.4-1.3 3.8-1.3.9 0 1.8.2 2.6.6zM90.1 21.8L84.4 8h-.7l-5.3 13.9c-.3 1.1-1.3 1.8-2.4 1.7v.5h4v-.5c-1.3 0-1.6-.6-1.2-1.7.7-1.7 2.4-6.1 4-10.3l2.7 6.7h-3.8l-.2.5h4.2l1.3 3.1c.5 1.2.1 1.8-1.2 1.7v.5h6.6v-.5c-1 0-1.9-.7-2.3-1.8z" fill="#1D1D1B" fill-rule="nonzero"/></g></svg>