<svg width="19" height="19" viewBox="0 0 19 19" fill="none" xmlns="http://www.w3.org/2000/svg">
<mask id="mask0_23_647" style="mask-type:alpha" maskUnits="userSpaceOnUse" x="2" y="2" width="15" height="16">
<path fill-rule="evenodd" clip-rule="evenodd" d="M5.38333 6.38611C5.38333 7.79142 6.10602 9.02793 7.20003 9.74427C4.39801 10.6656 2.375 13.3035 2.375 16.4139C2.375 16.9677 2.82396 17.4167 3.37778 17.4167H15.4111C15.9649 17.4167 16.4139 16.9677 16.4139 16.4139C16.4139 13.3035 14.3909 10.6656 11.5889 9.74427C12.6829 9.02793 13.4056 7.79142 13.4056 6.38611C13.4056 4.17084 11.6097 2.375 9.39444 2.375C7.17917 2.375 5.38333 4.17084 5.38333 6.38611ZM9.5 8.70833C10.8117 8.70833 11.875 7.64501 11.875 6.33333C11.875 5.02166 10.8117 3.95833 9.5 3.95833C8.18832 3.95833 7.125 5.02166 7.125 6.33333C7.125 7.64501 8.18832 8.70833 9.5 8.70833ZM9.5 11.0833C6.76426 11.0833 4.48227 13.1232 3.95833 15.8333H15.0417C14.5177 13.1232 12.2357 11.0833 9.5 11.0833Z" fill="white"/>
</mask>
<g mask="url(#mask0_23_647)">
<rect width="19" height="19" fill="#F1C54C"/>
</g>
</svg>
