<svg id="Capa_1" data-name="Capa 1" xmlns="http://www.w3.org/2000/svg" viewBox="0 0 150 25.26"><defs><style>.cls-1{fill:#1e1e1c;}.cls-2{fill:#ff4438;}</style></defs><path class="cls-1" d="M110.75,14.29a8.31,8.31,0,0,1-8.56,8.6,8.4,8.4,0,0,1-8.57-8.62,8.57,8.57,0,1,1,17.13,0Zm-3.77-.1a5.27,5.27,0,0,0-.51-2.45A4.67,4.67,0,0,0,98,11.59,6.06,6.06,0,0,0,97.68,16a4.61,4.61,0,0,0,5.59,3.37C105.52,18.9,107,16.89,107,14.19Z"/><path class="cls-1" d="M115.62,7.8c2.27-2.94,7.59-2.79,9.62-.4a6.28,6.28,0,0,1,1.55,4.18c0,3.45,0,10.93,0,10.93H123s0-6.78,0-9.84c0-.21,0-.42,0-.62-.21-2-1.27-3.12-3.1-3.19a3.59,3.59,0,0,0-3.9,3,9.78,9.78,0,0,0-.09,1.62c0,2.76,0,9.05,0,9.05h-3.85V6h3.53S115.62,7.38,115.62,7.8Z"/><path class="cls-1" d="M53.65,3.16V0L49.89,1.15c0,7,0,14.41,0,21.36h3.78C53.64,16.3,53.65,9.37,53.65,3.16Z"/><path class="cls-1" d="M91.25,6V2.67H87.44V6H86V9.14h1.41V22.51h3.81V9.14H93.5A9.85,9.85,0,0,1,95,7.1,9.55,9.55,0,0,1,96.39,6Z"/><path class="cls-1" d="M41.36,17.35c-.13-2-1.32-3.34-3.58-4-.81-.25-1.66-.39-2.48-.59A8.52,8.52,0,0,1,32.64,12a1.49,1.49,0,0,1-.22-2.43,3.36,3.36,0,0,1,5,.93l0,.08c.08.16.15.34.15.34l.16-.05,3.26-1a.64.64,0,0,0,0-.17,5.33,5.33,0,0,0-2.49-3,8,8,0,0,0-7.62,0,4.85,4.85,0,0,0-2.6,5,4.23,4.23,0,0,0,3.55,3.67c1.45.34,2.92.62,4.35,1,1,.28,1.51.86,1.52,1.61a2,2,0,0,1-1.55,1.89,4.7,4.7,0,0,1-1.45.25h-.36l-.18,0a4.22,4.22,0,0,1-3-2.15h0l-3.34,1a6,6,0,0,0,3.4,3.47,9.08,9.08,0,0,0,7.07-.15A4.7,4.7,0,0,0,41.36,17.35Z"/><path class="cls-1" d="M85.61,17.35c-.14-2-1.32-3.34-3.59-4-.81-.25-1.65-.39-2.48-.59A8.46,8.46,0,0,1,76.89,12a1.49,1.49,0,0,1-.22-2.43,3.35,3.35,0,0,1,5,.93l0,.08c.08.16.15.34.15.34l.15-.05,3.27-1a1.54,1.54,0,0,0,0-.17,5.41,5.41,0,0,0-2.49-3,8.06,8.06,0,0,0-7.63,0,4.87,4.87,0,0,0-2.6,5,4.23,4.23,0,0,0,3.56,3.67c1.45.34,2.91.62,4.35,1,1,.28,1.5.86,1.52,1.61a2,2,0,0,1-1.55,1.89,4.81,4.81,0,0,1-1.45.25H78.6l-.19,0a4.2,4.2,0,0,1-2.94-2.15h0l-3.35,1a6,6,0,0,0,3.41,3.47,9.06,9.06,0,0,0,7.06-.15A4.7,4.7,0,0,0,85.61,17.35Z"/><path class="cls-1" d="M71.27,11.83c-1.59-6.75-9.12-7.67-13-4.46A9.43,9.43,0,0,0,56,18.11a7.64,7.64,0,0,0,7.48,4.75,7.64,7.64,0,0,0,7-3.92h0l-3.35-1v0s-.22.2-.42.39a4.53,4.53,0,0,1-7.6-2.09c-.23-.84-.18-.87-.18-.87H71.36A10.68,10.68,0,0,0,71.27,11.83Zm-3.55.66c-1.26,0-3.09,0-4.35,0s-3.08,0-4.34,0c0,0,0-.08.11-.57a4.34,4.34,0,0,1,4.37-3.21,4.12,4.12,0,0,1,4.12,3.18A2.32,2.32,0,0,1,67.72,12.49Z"/><path class="cls-1" d="M144.42,11.83c-1.59-6.75-9.11-7.67-13-4.46a9.41,9.41,0,0,0-2.29,10.74,8.26,8.26,0,0,0,14.5.83h0l-3.34-1v0s-.22.2-.42.39a4.53,4.53,0,0,1-7.6-2.09c-.23-.84-.18-.87-.18-.87h12.44A10.68,10.68,0,0,0,144.42,11.83Zm-3.55.66c-1.26,0-3.09,0-4.35,0s-3.08,0-4.34,0c0,0,0-.08.11-.57a4.34,4.34,0,0,1,4.37-3.21,4.12,4.12,0,0,1,4.12,3.18A2.32,2.32,0,0,1,140.87,12.49Z"/><rect class="cls-1" x="43.33" y="8.91" width="3.82" height="13.6"/><circle class="cls-1" cx="45.21" cy="4.66" r="2.15"/><path class="cls-1" d="M150,8.44a2.17,2.17,0,1,1-2.17-2.18A2.17,2.17,0,0,1,150,8.44Zm-.27,0a1.9,1.9,0,1,0-3.8,0,1.9,1.9,0,1,0,3.8,0Zm-1,1.11h-.3l-.48-.9h-.57v.9h-.28V7.32h.79a.68.68,0,0,1,.75.66.66.66,0,0,1-.42.61Zm-1.35-1.17h.51c.33,0,.48-.16.48-.4s-.15-.39-.48-.39h-.51Z"/><path class="cls-2" d="M17.74,25.26a2.24,2.24,0,0,0,1.31-.44c3.78-2.5,3.91-7.19,1.11-11.8-2.23-3.67-1.78-6.85.08-9.52a.17.17,0,0,0-.13-.27H.17A.17.17,0,0,0,0,3.4V25.09a.18.18,0,0,0,.17.17Z"/></svg>