<?xml version="1.0" encoding="UTF-8"?>
<svg width="159px" height="19px" viewBox="0 0 159 19" version="1.1" xmlns="http://www.w3.org/2000/svg" xmlns:xlink="http://www.w3.org/1999/xlink">
    <!-- Generator: sketchtool 64 (101010) - https://sketch.com -->
    <title>5F0CB52C-C581-4B9C-BE50-5F17BCEEB57A@3x</title>
    <desc>Created with sketchtool.</desc>
    <g id="Visual-v5-(1440)" stroke="none" stroke-width="1" fill="none" fill-rule="evenodd">
        <g id="Fachadas-GENERAL-dt01a" transform="translate(-80.000000, -30.000000)" fill="#232323">
            <g id="Logo-COSENTINO" transform="translate(80.000000, 30.000000)">
                <path d="M15.0823967,17.6230536 C14.3722197,18.128589 13.5773859,18.4802658 12.7025983,18.6756418 C11.8254592,18.8685755 10.8730695,18.9613791 9.84542927,18.9516103 C7.99473624,18.9369571 6.38860748,18.5486474 5.03174613,17.7842388 C3.67018163,17.0222725 2.61902561,15.9745688 1.87357492,14.6411277 C1.13047581,13.3076866 0.751871522,11.7788696 0.742465204,10.0546765 C0.75657468,8.27919731 1.15164003,6.70642065 1.92766125,5.33634658 C2.70368247,3.9687147 3.77129954,2.8917046 5.13521563,2.11020067 C6.49913171,1.32869675 8.06998679,0.933060382 9.84542927,0.915964983 C12.0253434,0.920849383 13.7702154,1.29206375 15.0823967,2.02960808 L15.0823967,5.69046554 C14.2616955,5.1238752 13.4574553,4.70870123 12.6767309,4.44982806 C11.893655,4.18851268 11.0118127,4.05907609 10.0312041,4.06396049 C8.44388792,4.08838249 7.13876132,4.62078204 6.11582426,5.66115915 C5.09523878,6.69909405 4.5661334,8.09114792 4.53085971,9.83732076 C4.54026602,10.9021199 4.77072081,11.8765576 5.22222407,12.7630761 C5.67372732,13.6495946 6.29219272,14.3602747 7.07762026,14.8975587 C7.86304779,15.4348426 8.75899957,15.7108112 9.76782715,15.7254644 C10.72492,15.7425598 11.6255749,15.6375452 12.4650888,15.4055363 C13.3046027,15.1735273 14.1793902,14.7021827 15.0823967,13.9890604 L15.0823967,17.6230536 Z" id="Fill-1"></path>
                <path d="M31.9855498,9.94697553 C31.9761435,8.1446321 31.5693203,6.71106083 30.7650801,5.64626173 C29.9608399,4.57902043 28.8250271,4.03440988 27.3552899,4.00754568 C25.8714433,4.03440988 24.7309272,4.57902043 23.9337418,5.64626173 C23.1342048,6.71106083 22.7320847,8.1446321 22.7226784,9.94697553 C22.7320847,11.749319 23.1342048,13.1828902 23.9337418,14.2501315 C24.7309272,15.3173728 25.8714433,15.8595412 27.3552899,15.8864054 C28.8250271,15.8595412 29.9608399,15.3173728 30.7650801,14.2501315 C31.5693203,13.1828902 31.9761435,11.749319 31.9855498,9.94697553 M35.7739443,9.94697553 C35.7621864,11.7688566 35.4118011,13.351402 34.713382,14.7019385 C34.0173145,16.0500328 33.041409,17.0952943 31.783314,17.8426074 C30.525219,18.5923627 29.0484271,18.9684615 27.3552899,18.9782303 C25.6598011,18.9684615 24.1830092,18.5923627 22.9249142,17.8426074 C21.6668192,17.0952943 20.6909137,16.0500328 19.9948462,14.7019385 C19.2964271,13.351402 18.9460418,11.7688566 18.9342839,9.94697553 C18.967206,7.18728979 19.7361725,4.99907879 21.2388317,3.38722694 C22.7438426,1.77537508 24.782662,0.95235376 27.3552899,0.915720763 C29.9161599,0.95235376 31.9502762,1.77537508 33.4599902,3.38722694 C34.9673526,4.99907879 35.7386707,7.18728979 35.7739443,9.94697553" id="Fill-3"></path>
                <path d="M51.327526,13.6640036 C51.3157681,14.7288027 51.0476881,15.6568386 50.5209343,16.4529957 C49.996532,17.2467107 49.2863551,17.8645872 48.3880517,18.3041832 C47.4920999,18.7486635 46.4809208,18.9733459 45.3545142,18.9782303 C44.5479224,18.9879991 43.7295728,18.9489239 42.9018168,18.8683313 C42.0717093,18.7852965 41.2698207,18.6045737 40.4867447,18.3286052 L40.1457657,14.5847129 C40.7900985,15.0145401 41.5331976,15.3637746 42.375063,15.6348588 C43.2169285,15.9035008 44.1575603,16.0427062 45.1969584,16.0500328 C45.8977291,16.0329374 46.4762176,15.8253504 46.932424,15.429714 C47.390982,15.0365199 47.6284915,14.5627331 47.6449526,14.0156804 C47.642601,13.5125872 47.4968031,13.1047398 47.2075588,12.7921383 C46.9183145,12.4819789 46.502085,12.2011259 45.9588701,11.9544637 L43.7248696,10.8676848 C42.5490799,10.2986523 41.7001597,9.62948956 41.1781091,8.86019663 C40.6537069,8.0884615 40.3973847,7.22392278 40.406791,6.25925387 C40.4444163,4.61565342 41.0323112,3.32617194 42.1704756,2.39569383 C43.3109917,1.46033131 44.7948383,0.988986756 46.6173124,0.971891358 C47.390982,0.981660157 48.1670032,1.08911695 48.9383213,1.28937733 C49.7143425,1.49207991 50.3445658,1.71920449 50.8289912,1.97319327 L50.8289912,5.49972974 C49.9777194,4.8256826 49.2299171,4.38364444 48.5832328,4.16873086 C47.9389,3.95137508 47.2828094,3.85368709 46.6173124,3.87322469 C45.8412912,3.88055129 45.2110679,4.05638967 44.7289941,4.40073984 C44.2492719,4.74753221 44.0000044,5.22131897 43.985895,5.82698451 C43.9976529,6.32763547 44.1669666,6.75502043 44.4938361,7.11402379 C44.8207057,7.47058496 45.2392868,7.76609113 45.7495796,7.99565791 L48.3292622,9.2167578 C49.1311508,9.58308777 49.8272183,10.1447937 50.41041,10.8896646 C50.9936017,11.63942 51.2993071,12.5625715 51.327526,13.6640036" id="Fill-5"></path>
                <polygon id="Fill-7" points="67.7163887 15.5887012 66.6652327 18.6243556 57.084898 18.6243556 57.084898 1.21391336 67.3471907 1.21391336 66.3759884 4.17141728 60.6922209 4.17141728 60.6922209 8.3475789 66.216081 8.3475789 65.2683945 11.2757764 60.6922209 11.2757764 60.6922209 15.5887012"></polygon>
                <polygon id="Fill-9" points="87.4727132 18.6245998 85.4715191 18.6245998 76.9211762 7.61516319 76.9211762 18.6245998 73.7089186 18.6245998 73.7089186 3.46586577 71.945234 1.21415758 76.5261108 1.21415758 84.2345883 11.2491565 84.2345883 1.21415758 87.4727132 1.21415758"></polygon>
                <polygon id="Fill-11" points="104.898387 1.2144018 103.924833 4.33309091 99.7155061 4.33309091 99.7155061 18.624844 96.0846675 18.624844 96.0846675 4.33309091 91.586096 4.33309091 91.586096 1.2144018"></polygon>
                <polygon id="Fill-13" points="108.952275 18.6258209 112.554895 18.6258209 112.554895 1.21537868 108.952275 1.21537868"></polygon>
                <polygon id="Fill-15" points="133.252792 18.6245998 131.251598 18.6245998 122.701255 7.61516319 122.701255 18.6245998 119.488997 18.6245998 119.488997 3.46586577 117.725313 1.21415758 122.306189 1.21415758 130.014667 11.2491565 130.014667 1.21415758 133.252792 1.21415758"></polygon>
                <path d="M151.032143,9.94697553 C151.020385,8.1446321 150.613562,6.71106083 149.809322,5.64626173 C149.007433,4.57902043 147.869269,4.03440988 146.399532,4.00754568 C144.918037,4.03440988 143.777521,4.57902043 142.980335,5.64626173 C142.180798,6.71106083 141.776327,8.1446321 141.769272,9.94697553 C141.776327,11.749319 142.180798,13.1828902 142.980335,14.2501315 C143.777521,15.3173728 144.918037,15.8595412 146.399532,15.8864054 C147.869269,15.8595412 149.007433,15.3173728 149.809322,14.2501315 C150.613562,13.1828902 151.020385,11.749319 151.032143,9.94697553 M154.820538,9.94697553 C154.80878,11.7688566 154.456043,13.351402 153.759976,14.7019385 C153.063908,16.0500328 152.085651,17.0952943 150.827556,17.8426074 C149.571812,18.5923627 148.095021,18.9684615 146.399532,18.9782303 C144.706395,18.9684615 143.229603,18.5923627 141.971508,17.8426074 C140.713413,17.0952943 139.735156,16.0500328 139.039088,14.7019385 C138.343021,13.351402 137.990284,11.7688566 137.978526,9.94697553 C138.013799,7.18728979 138.782766,4.99907879 140.287777,3.38722694 C141.788084,1.77537508 143.829255,0.95235376 146.399532,0.915720763 C148.960402,0.95235376 150.994518,1.77537508 152.504232,3.38722694 C154.013946,4.99907879 154.785264,7.18728979 154.820538,9.94697553" id="Fill-16"></path>
                <path d="M157.602221,2.21008664 C157.602221,2.41523143 157.482291,2.51291942 157.233023,2.51291942 L156.969646,2.51291942 L156.969646,1.95365567 L157.233023,1.95365567 C157.364712,1.95365567 157.449369,1.96586667 157.498752,1.99273086 C157.562244,2.02447946 157.602221,2.11239865 157.602221,2.21008664 L157.602221,2.21008664 Z M157.98788,3.41164893 L157.447017,2.6936422 C157.7198,2.666778 157.879708,2.48117082 157.879708,2.20276004 C157.879708,1.87062088 157.696284,1.72897329 157.273,1.72897329 L156.687457,1.72897329 L156.687457,3.41164893 L156.969646,3.41164893 L156.969646,2.7180642 L157.143663,2.7180642 L157.642198,3.41164893 L157.98788,3.41164893 Z M158.467602,2.56664781 C158.467602,3.25290595 157.938497,3.8048431 157.280055,3.8048431 C156.621613,3.8048431 156.087804,3.25290595 156.087804,2.56664781 C156.087804,1.88527407 156.621613,1.33333692 157.280055,1.33333692 C157.938497,1.33333692 158.467602,1.88527407 158.467602,2.56664781 L158.467602,2.56664781 Z M158.688651,2.56664781 C158.688651,1.76072189 158.056076,1.10377015 157.280055,1.10377015 C156.49933,1.10377015 155.869107,1.76072189 155.869107,2.56664781 C155.869107,3.37745814 156.49933,4.03196768 157.280055,4.03196768 C158.056076,4.03196768 158.688651,3.37745814 158.688651,2.56664781 L158.688651,2.56664781 Z" id="Fill-17"></path>
            </g>
        </g>
    </g>
</svg>